<svg width="32" height="32" viewBox="0 0 32 32" fill="none" xmlns="http://www.w3.org/2000/svg">
<rect width="32" height="32" rx="4" fill="#141315"/>
<path opacity="0.05" fill-rule="evenodd" clip-rule="evenodd" d="M15.0439 23.8347C17.6521 19.2705 17.6521 12.7296 15.0439 8.16542L15.6228 7.83466C18.348 12.6038 18.348 19.3963 15.6228 24.1653L15.0439 23.8347Z" fill="white"/>
<path opacity="0.1" fill-rule="evenodd" clip-rule="evenodd" d="M15.7094 23.97C18.319 19.3269 18.319 12.673 15.7094 8.02995L16.2905 7.70331C19.0142 12.5492 19.0142 19.4508 16.2905 24.2966L15.7094 23.97Z" fill="white"/>
<path opacity="0.15" fill-rule="evenodd" clip-rule="evenodd" d="M16.428 24.0085C18.9667 19.327 18.9685 12.6855 16.4332 8.0011L17.0195 7.68378C19.662 12.5662 19.6601 19.4466 17.014 24.3264L16.428 24.0085Z" fill="white"/>
<path opacity="0.2" fill-rule="evenodd" clip-rule="evenodd" d="M17.2172 23.9053C19.5936 19.2379 19.5943 12.7672 17.2192 8.09869L17.8134 7.79639C20.2852 12.6548 20.2844 19.3504 17.8113 24.2079L17.2172 23.9053Z" fill="white"/>
<path opacity="0.25" fill-rule="evenodd" clip-rule="evenodd" d="M18.0326 23.7275C20.209 19.1172 20.2115 12.9029 18.0401 8.28875L18.6433 8.00488C20.8994 12.7989 20.8968 19.2217 18.6355 24.0121L18.0326 23.7275Z" fill="white"/>
<path opacity="0.3" fill-rule="evenodd" clip-rule="evenodd" d="M18.8907 23.4207C20.8129 18.9276 20.8142 13.0828 18.8945 8.58795L19.5076 8.32611C21.4988 12.9883 21.4974 19.0225 19.5037 23.683L18.8907 23.4207Z" fill="white"/>
<path opacity="0.35" fill-rule="evenodd" clip-rule="evenodd" d="M19.7747 22.9941C21.4068 18.6943 21.4085 13.3214 19.7796 9.01926L20.4032 8.7832C22.0896 13.2375 22.0879 18.7786 20.398 23.2308L19.7747 22.9941Z" fill="white"/>
<path opacity="0.4" fill-rule="evenodd" clip-rule="evenodd" d="M20.6874 22.3981C21.9918 18.3966 21.9931 13.6173 20.6912 9.61421L21.3252 9.40802C22.6707 13.5452 22.6694 18.469 21.3212 22.6046L20.6874 22.3981Z" fill="white"/>
<path opacity="0.45" fill-rule="evenodd" clip-rule="evenodd" d="M21.6285 21.5573C22.5672 18.0173 22.5683 13.9959 21.6316 10.4549L22.2761 10.2844C23.2424 13.9372 23.2413 18.0763 22.2729 21.7281L21.6285 21.5573Z" fill="white"/>
<path opacity="0.5" fill-rule="evenodd" clip-rule="evenodd" d="M22.591 20.336C23.1366 17.5168 23.1364 14.4812 22.5906 11.6621L23.2451 11.5354C23.8071 14.4381 23.8072 17.5598 23.2455 20.4627L22.591 20.336Z" fill="white"/>
<path fill-rule="evenodd" clip-rule="evenodd" d="M15.9999 7.16937C11.123 7.16937 7.16943 11.1229 7.16943 15.9998C7.16943 18.1984 7.97292 20.2093 9.30227 21.7549L8.19529 22.8618C7.93495 23.1222 7.93495 23.5444 8.19529 23.8046C8.45564 24.065 8.87776 24.065 9.13811 23.8046L10.2451 22.6977C11.7907 24.0269 13.8015 24.8302 15.9999 24.8302C20.8768 24.8302 24.8303 20.8766 24.8303 15.9998C24.8303 13.8014 24.0269 11.7906 22.6977 10.245L23.8048 9.13805C24.0651 8.8777 24.0651 8.45558 23.8048 8.19523C23.5444 7.93489 23.1223 7.93489 22.862 8.19523L21.7549 9.30221C20.2093 7.97286 18.1984 7.16937 15.9999 7.16937ZM20.8564 10.2008C19.5424 9.0993 17.8486 8.43603 15.9999 8.43603C11.8225 8.43603 8.43611 11.8225 8.43611 15.9998C8.43611 17.8485 9.09936 19.5424 10.2009 20.8562L20.8564 10.2008ZM11.1437 21.799C12.4576 22.9004 14.1513 23.5636 15.9999 23.5636C20.1772 23.5636 23.5636 20.1772 23.5636 15.9998C23.5636 14.1512 22.9005 12.4576 21.7991 11.1437L11.1437 21.799Z" fill="white"/>
</svg>
