<svg width="700" height="320" viewBox="0 0 700 320" fill="none" xmlns="http://www.w3.org/2000/svg">
<g clip-path="url(#clip0_63_42)">
<rect width="700" height="320" rx="12" fill="#FCFCFC"/>
<mask id="mask0_63_42" style="mask-type:alpha" maskUnits="userSpaceOnUse" x="0" y="0" width="700" height="320">
<rect width="700" height="320" fill="#D9D9D9"/>
</mask>
<g mask="url(#mask0_63_42)">
</g>
<path opacity="0.05" fill-rule="evenodd" clip-rule="evenodd" d="M316.538 606.213C407.822 446.466 407.822 217.536 316.538 57.789L336.797 46.2124C432.18 213.132 432.18 450.869 336.797 617.787L316.538 606.213Z" fill="#EEEEEE"/>
<path opacity="0.1" fill-rule="evenodd" clip-rule="evenodd" d="M339.829 610.95C431.167 448.444 431.167 215.555 339.829 53.0491L360.169 41.6167C455.498 211.222 455.498 452.778 360.169 622.383L339.829 610.95Z" fill="#EEEEEE"/>
<path opacity="0.15" fill-rule="evenodd" clip-rule="evenodd" d="M364.979 612.299C453.834 448.444 453.897 215.992 365.163 52.0392L385.684 40.933C478.17 211.817 478.105 452.633 385.491 623.424L364.979 612.299Z" fill="#EEEEEE"/>
<path opacity="0.2" fill-rule="evenodd" clip-rule="evenodd" d="M392.599 608.687C475.776 445.326 475.799 218.851 392.67 55.4543L413.466 44.8735C499.982 214.919 499.954 449.264 413.392 619.275L392.599 608.687Z" fill="#EEEEEE"/>
<path opacity="0.25" fill-rule="evenodd" clip-rule="evenodd" d="M421.139 602.461C497.313 441.102 497.401 223.6 421.402 62.1061L442.514 52.1708C521.477 219.962 521.388 444.76 442.24 612.425L421.139 602.461Z" fill="#EEEEEE"/>
<path opacity="0.3" fill-rule="evenodd" clip-rule="evenodd" d="M451.177 591.723C518.453 434.467 518.499 229.898 451.308 72.5777L472.766 63.4133C542.458 226.59 542.411 437.785 472.631 600.903L451.177 591.723Z" fill="#EEEEEE"/>
<path opacity="0.35" fill-rule="evenodd" clip-rule="evenodd" d="M482.113 576.795C539.238 426.301 539.299 238.248 482.286 87.6739L504.112 79.412C563.136 235.314 563.075 429.251 503.93 585.078L482.113 576.795Z" fill="#EEEEEE"/>
<path opacity="0.4" fill-rule="evenodd" clip-rule="evenodd" d="M514.057 555.935C559.711 415.881 559.757 248.605 514.192 108.498L536.382 101.281C583.473 246.082 583.427 418.416 536.242 563.163L514.057 555.935Z" fill="#EEEEEE"/>
<path opacity="0.45" fill-rule="evenodd" clip-rule="evenodd" d="M546.999 526.507C579.852 402.608 579.889 261.856 547.106 137.921L569.665 131.954C603.484 259.803 603.447 404.673 569.553 532.485L546.999 526.507Z" fill="#EEEEEE"/>
<path opacity="0.5" fill-rule="evenodd" clip-rule="evenodd" d="M580.683 483.76C599.779 385.089 599.774 278.842 580.669 180.175L603.577 175.739C623.247 277.335 623.252 386.593 603.591 488.193L580.683 483.76Z" fill="#EEEEEE"/>
<path fill-rule="evenodd" clip-rule="evenodd" d="M349.996 22.9288C179.304 22.9288 40.9302 161.302 40.9302 331.994C40.9302 408.944 69.0522 479.327 115.579 533.423L76.8353 572.165C67.7231 581.279 67.7231 596.054 76.8353 605.163C85.9474 614.277 100.722 614.277 109.834 605.163L148.579 566.421C202.674 612.943 273.051 641.059 349.996 641.059C520.688 641.059 659.059 502.683 659.059 331.994C659.059 255.05 630.943 184.672 584.421 130.577L623.168 91.8324C632.277 82.7202 632.277 67.946 623.168 58.8339C614.054 49.7217 599.279 49.7217 590.17 58.8339L551.423 97.5779C497.327 51.0508 426.945 22.9288 349.996 22.9288ZM519.974 129.03C473.984 90.4762 414.701 67.2619 349.996 67.2619C203.788 67.2619 85.2637 185.787 85.2637 331.994C85.2637 396.699 108.478 455.984 147.032 501.969L519.974 129.03ZM180.031 534.967C226.017 573.514 285.296 596.726 349.996 596.726C496.202 596.726 614.726 478.202 614.726 331.994C614.726 267.294 591.519 208.016 552.967 162.03L180.031 534.967Z" fill="#EEEEEE"/>
<rect width="700" height="319" fill="url(#paint0_linear_63_42)" fill-opacity="0.15"/>
<path opacity="0.05" fill-rule="evenodd" clip-rule="evenodd" d="M284.47 110.535C288.643 103.233 288.643 92.7673 284.47 85.4646L285.396 84.9354C289.757 92.566 289.757 103.434 285.396 111.065L284.47 110.535Z" fill="#111111"/>
<path opacity="0.1" fill-rule="evenodd" clip-rule="evenodd" d="M285.535 110.752C289.71 103.323 289.71 92.6768 285.535 85.248L286.465 84.7253C290.823 92.4787 290.823 103.521 286.465 111.275L285.535 110.752Z" fill="#111111"/>
<path opacity="0.15" fill-rule="evenodd" clip-rule="evenodd" d="M286.685 110.814C290.747 103.323 290.75 92.6968 286.693 85.2018L287.631 84.6941C291.859 92.506 291.856 103.515 287.622 111.322L286.685 110.814Z" fill="#111111"/>
<path opacity="0.2" fill-rule="evenodd" clip-rule="evenodd" d="M287.948 110.649C291.75 103.181 291.751 92.8274 287.951 85.3579L288.901 84.8742C292.856 92.6477 292.855 103.361 288.898 111.133L287.948 110.649Z" fill="#111111"/>
<path opacity="0.25" fill-rule="evenodd" clip-rule="evenodd" d="M289.252 110.364C292.734 102.988 292.738 93.0446 289.264 85.662L290.229 85.2078C293.839 92.8783 293.835 103.155 290.217 110.819L289.252 110.364Z" fill="#111111"/>
<path opacity="0.3" fill-rule="evenodd" clip-rule="evenodd" d="M290.625 109.873C293.701 102.684 293.703 93.3325 290.631 86.1407L291.612 85.7217C294.798 93.1812 294.796 102.836 291.606 110.293L290.625 109.873Z" fill="#111111"/>
<path opacity="0.35" fill-rule="evenodd" clip-rule="evenodd" d="M292.04 109.191C294.651 102.311 294.654 93.7142 292.047 86.8308L293.045 86.4531C295.743 93.5801 295.741 102.446 293.037 109.569L292.04 109.191Z" fill="#111111"/>
<path opacity="0.4" fill-rule="evenodd" clip-rule="evenodd" d="M293.5 108.237C295.587 101.835 295.589 94.1877 293.506 87.7828L294.52 87.4529C296.673 94.0723 296.671 101.95 294.514 108.567L293.5 108.237Z" fill="#111111"/>
<path opacity="0.45" fill-rule="evenodd" clip-rule="evenodd" d="M295.006 106.892C296.507 101.228 296.509 94.7934 295.011 89.1278L296.042 88.855C297.588 94.6996 297.586 101.322 296.037 107.165L295.006 106.892Z" fill="#111111"/>
<path opacity="0.5" fill-rule="evenodd" clip-rule="evenodd" d="M296.546 104.938C297.419 100.427 297.418 95.5699 296.545 91.0594L297.592 90.8566C298.491 95.501 298.492 100.496 297.593 105.14L296.546 104.938Z" fill="#111111"/>
<path fill-rule="evenodd" clip-rule="evenodd" d="M286 83.871C278.197 83.871 271.871 90.1967 271.871 97.9997C271.871 101.517 273.157 104.735 275.284 107.208L273.512 108.979C273.096 109.396 273.096 110.071 273.512 110.487C273.929 110.904 274.604 110.904 275.021 110.487L276.792 108.716C279.265 110.843 282.482 112.128 286 112.128C293.803 112.128 300.128 105.803 300.128 97.9997C300.128 94.4823 298.843 91.265 296.716 88.7921L298.488 87.0209C298.904 86.6044 298.904 85.929 298.488 85.5124C298.071 85.0959 297.396 85.0959 296.979 85.5124L295.208 87.2836C292.735 85.1566 289.518 83.871 286 83.871ZM293.77 88.7214C291.668 86.9589 288.958 85.8977 286 85.8977C279.316 85.8977 273.898 91.316 273.898 97.9997C273.898 100.958 274.959 103.668 276.721 105.77L293.77 88.7214ZM278.23 107.279C280.332 109.041 283.042 110.102 286 110.102C292.684 110.102 298.102 104.684 298.102 97.9997C298.102 95.042 297.041 92.3321 295.279 90.2299L278.23 107.279Z" fill="#111111"/>
<path d="M329.776 109.512C323.44 109.512 319.568 104.968 319.568 97.672C319.568 90.312 323.44 85.768 329.776 85.768C336.112 85.768 339.984 90.312 339.984 97.672C339.984 104.968 336.112 109.512 329.776 109.512ZM321.872 97.672C321.872 103.656 324.848 107.368 329.776 107.368C334.704 107.368 337.68 103.656 337.68 97.672C337.68 91.624 334.704 87.912 329.776 87.912C324.848 87.912 321.872 91.624 321.872 97.672ZM343.624 92.04H345.416L345.544 95.4C346.216 93.16 347.56 92.04 349.8 92.04H351.272V93.896H349.8C347.144 93.896 345.736 95.816 345.736 98.888V109H343.624V92.04ZM355.437 86.28H357.549V94.888C358.445 92.968 360.621 91.688 362.989 91.688C367.373 91.688 370.125 95.112 370.125 100.52C370.125 105.96 367.373 109.384 362.989 109.384C360.557 109.384 358.413 108.072 357.389 105.992L357.293 109H355.437V86.28ZM357.325 100.52C357.325 104.648 359.437 107.368 362.605 107.368C365.837 107.368 367.885 104.712 367.885 100.52C367.885 96.296 365.837 93.64 362.605 93.64C359.437 93.64 357.325 96.36 357.325 100.52ZM373.718 92.04H375.83V109H373.718V92.04ZM373.654 89.352V86.568H375.894V89.352H373.654ZM381.761 88.2H383.873V92.04H388.257V93.928H383.873V104.84C383.873 106.344 384.577 107.144 385.985 107.144H388.193V109H385.985C383.297 109 381.761 107.464 381.761 104.84V93.928H379.105V92.04H381.761V88.2ZM392.445 86.28H394.621V98.44L405.757 86.28H408.509L399.485 96.136L409.149 109H406.525L398.045 97.736L394.621 101.448V109H392.445V86.28ZM412.655 92.04H414.767V109H412.655V92.04ZM412.591 89.352V86.568H414.831V89.352H412.591ZM420.699 88.2H422.811V92.04H427.195V93.928H422.811V104.84C422.811 106.344 423.515 107.144 424.923 107.144H427.131V109H424.923C422.235 109 420.699 107.464 420.699 104.84V93.928H418.043V92.04H420.699V88.2Z" fill="#111111"/>
<path d="M102.48 154.619V148.909H127.069V154.619H118.248V178H111.316V154.619H102.48ZM141.61 168.582V156.182H148.542V178H141.923V173.938H141.696C141.213 175.273 140.389 176.333 139.224 177.119C138.069 177.896 136.672 178.284 135.034 178.284C133.547 178.284 132.24 177.943 131.113 177.261C129.986 176.58 129.11 175.628 128.485 174.406C127.86 173.175 127.543 171.736 127.534 170.088V156.182H134.48V168.724C134.489 169.908 134.802 170.841 135.417 171.523C136.033 172.205 136.871 172.545 137.931 172.545C138.623 172.545 139.243 172.394 139.792 172.091C140.351 171.778 140.791 171.329 141.113 170.741C141.445 170.145 141.61 169.425 141.61 168.582ZM152.963 178V156.182H159.711V160.159H159.938C160.336 158.72 160.984 157.65 161.884 156.949C162.783 156.239 163.83 155.884 165.023 155.884C165.345 155.884 165.676 155.907 166.017 155.955C166.358 155.992 166.676 156.054 166.969 156.139V162.176C166.638 162.062 166.202 161.973 165.662 161.906C165.132 161.84 164.658 161.807 164.242 161.807C163.418 161.807 162.675 161.991 162.012 162.361C161.358 162.721 160.842 163.227 160.463 163.881C160.094 164.525 159.909 165.282 159.909 166.153V178H152.963ZM176.745 165.557V178H169.799V156.182H176.404V160.188H176.646C177.129 158.852 177.953 157.806 179.118 157.048C180.282 156.281 181.67 155.898 183.279 155.898C184.814 155.898 186.144 156.243 187.271 156.935C188.407 157.616 189.288 158.573 189.913 159.804C190.547 161.026 190.86 162.455 190.85 164.094V178H183.904V165.457C183.914 164.245 183.606 163.298 182.981 162.616C182.366 161.935 181.509 161.594 180.41 161.594C179.681 161.594 179.037 161.755 178.478 162.077C177.929 162.389 177.503 162.839 177.2 163.426C176.906 164.013 176.755 164.723 176.745 165.557ZM219.469 157.631C219.374 156.589 218.953 155.779 218.205 155.202C217.466 154.615 216.41 154.321 215.037 154.321C214.128 154.321 213.371 154.439 212.765 154.676C212.158 154.913 211.704 155.24 211.401 155.656C211.098 156.063 210.942 156.532 210.932 157.062C210.913 157.498 210.998 157.882 211.188 158.213C211.387 158.545 211.671 158.838 212.04 159.094C212.419 159.34 212.873 159.558 213.404 159.747C213.934 159.937 214.531 160.102 215.194 160.244L217.694 160.812C219.133 161.125 220.402 161.542 221.5 162.062C222.608 162.583 223.536 163.204 224.284 163.923C225.042 164.643 225.615 165.472 226.003 166.409C226.391 167.347 226.59 168.398 226.6 169.562C226.59 171.4 226.126 172.976 225.208 174.293C224.289 175.609 222.968 176.617 221.245 177.318C219.531 178.019 217.462 178.369 215.037 178.369C212.604 178.369 210.482 178.005 208.674 177.276C206.865 176.546 205.459 175.438 204.455 173.952C203.451 172.465 202.935 170.585 202.907 168.312H209.64C209.696 169.25 209.947 170.031 210.392 170.656C210.837 171.281 211.448 171.755 212.225 172.077C213.011 172.399 213.92 172.56 214.952 172.56C215.899 172.56 216.704 172.432 217.367 172.176C218.039 171.92 218.555 171.565 218.915 171.111C219.275 170.656 219.46 170.135 219.469 169.548C219.46 168.999 219.289 168.53 218.958 168.142C218.626 167.744 218.115 167.403 217.424 167.119C216.742 166.826 215.871 166.556 214.81 166.31L211.77 165.599C209.251 165.022 207.267 164.089 205.819 162.801C204.37 161.504 203.65 159.752 203.659 157.545C203.65 155.746 204.133 154.17 205.108 152.815C206.084 151.461 207.433 150.405 209.157 149.648C210.88 148.89 212.845 148.511 215.051 148.511C217.305 148.511 219.261 148.895 220.918 149.662C222.585 150.42 223.877 151.485 224.796 152.858C225.714 154.231 226.183 155.822 226.202 157.631H219.469ZM242.466 156.182V161.295H228.702V156.182H242.466ZM231.586 150.955H238.532V171.139C238.532 171.565 238.598 171.911 238.73 172.176C238.873 172.432 239.076 172.616 239.341 172.73C239.606 172.834 239.924 172.886 240.293 172.886C240.558 172.886 240.837 172.863 241.131 172.815C241.434 172.759 241.661 172.711 241.813 172.673L242.864 177.688C242.533 177.782 242.064 177.901 241.458 178.043C240.861 178.185 240.146 178.275 239.313 178.312C237.684 178.388 236.287 178.199 235.123 177.744C233.967 177.28 233.082 176.561 232.466 175.585C231.86 174.61 231.567 173.384 231.586 171.906V150.955ZM252.161 178.369C250.769 178.369 249.533 178.137 248.453 177.673C247.383 177.2 246.536 176.49 245.911 175.543C245.295 174.586 244.988 173.388 244.988 171.949C244.988 170.737 245.201 169.714 245.627 168.881C246.053 168.047 246.64 167.37 247.388 166.849C248.136 166.329 248.998 165.936 249.973 165.67C250.949 165.396 251.99 165.211 253.098 165.116C254.339 165.003 255.338 164.884 256.096 164.761C256.853 164.629 257.402 164.444 257.743 164.207C258.094 163.961 258.269 163.616 258.269 163.17V163.099C258.269 162.37 258.018 161.807 257.516 161.409C257.014 161.011 256.337 160.812 255.485 160.812C254.566 160.812 253.828 161.011 253.269 161.409C252.71 161.807 252.355 162.356 252.203 163.057L245.797 162.83C245.987 161.504 246.474 160.32 247.26 159.278C248.056 158.227 249.145 157.403 250.527 156.807C251.919 156.201 253.591 155.898 255.542 155.898C256.934 155.898 258.217 156.063 259.391 156.395C260.565 156.717 261.588 157.19 262.459 157.815C263.33 158.431 264.003 159.188 264.476 160.088C264.959 160.988 265.201 162.015 265.201 163.17V178H258.667V174.96H258.496C258.108 175.699 257.611 176.324 257.005 176.835C256.408 177.347 255.703 177.73 254.888 177.986C254.083 178.241 253.174 178.369 252.161 178.369ZM254.306 173.824C255.054 173.824 255.726 173.672 256.323 173.369C256.929 173.066 257.412 172.65 257.772 172.119C258.132 171.58 258.311 170.955 258.311 170.244V168.17C258.113 168.275 257.871 168.369 257.587 168.455C257.312 168.54 257.009 168.62 256.678 168.696C256.346 168.772 256.006 168.838 255.655 168.895C255.305 168.952 254.969 169.004 254.647 169.051C253.993 169.155 253.435 169.316 252.971 169.534C252.516 169.752 252.166 170.036 251.919 170.386C251.683 170.727 251.564 171.134 251.564 171.608C251.564 172.328 251.82 172.877 252.331 173.256C252.852 173.634 253.51 173.824 254.306 173.824ZM269.448 178V156.182H276.195V160.159H276.422C276.82 158.72 277.469 157.65 278.368 156.949C279.268 156.239 280.314 155.884 281.507 155.884C281.829 155.884 282.161 155.907 282.502 155.955C282.843 155.992 283.16 156.054 283.453 156.139V162.176C283.122 162.062 282.686 161.973 282.147 161.906C281.616 161.84 281.143 161.807 280.726 161.807C279.902 161.807 279.159 161.991 278.496 162.361C277.843 162.721 277.327 163.227 276.948 163.881C276.578 164.525 276.394 165.282 276.394 166.153V178H269.448ZM299.615 156.182V161.295H285.85V156.182H299.615ZM288.734 150.955H295.68V171.139C295.68 171.565 295.746 171.911 295.879 172.176C296.021 172.432 296.225 172.616 296.49 172.73C296.755 172.834 297.072 172.886 297.441 172.886C297.707 172.886 297.986 172.863 298.279 172.815C298.583 172.759 298.81 172.711 298.961 172.673L300.012 177.688C299.681 177.782 299.212 177.901 298.606 178.043C298.01 178.185 297.295 178.275 296.461 178.312C294.833 178.388 293.436 178.199 292.271 177.744C291.116 177.28 290.23 176.561 289.615 175.585C289.009 174.61 288.715 173.384 288.734 171.906V150.955ZM317.235 168.582V156.182H324.167V178H317.548V173.938H317.321C316.838 175.273 316.014 176.333 314.849 177.119C313.694 177.896 312.297 178.284 310.659 178.284C309.172 178.284 307.865 177.943 306.738 177.261C305.611 176.58 304.735 175.628 304.11 174.406C303.485 173.175 303.168 171.736 303.159 170.088V156.182H310.105V168.724C310.114 169.908 310.427 170.841 311.042 171.523C311.658 172.205 312.496 172.545 313.556 172.545C314.248 172.545 314.868 172.394 315.417 172.091C315.976 171.778 316.416 171.329 316.738 170.741C317.07 170.145 317.235 169.425 317.235 168.582ZM328.588 186.182V156.182H335.463V159.918H335.676C335.961 159.255 336.363 158.616 336.884 158C337.414 157.384 338.087 156.883 338.901 156.494C339.725 156.097 340.71 155.898 341.855 155.898C343.371 155.898 344.786 156.295 346.103 157.091C347.428 157.886 348.498 159.113 349.313 160.77C350.127 162.427 350.534 164.539 350.534 167.105C350.534 169.577 350.141 171.646 349.355 173.312C348.579 174.979 347.528 176.229 346.202 177.062C344.886 177.896 343.423 178.312 341.813 178.312C340.714 178.312 339.763 178.133 338.958 177.773C338.153 177.413 337.476 176.939 336.926 176.352C336.387 175.765 335.97 175.135 335.676 174.463H335.534V186.182H328.588ZM335.392 167.091C335.392 168.265 335.549 169.288 335.861 170.159C336.183 171.03 336.642 171.707 337.239 172.19C337.845 172.664 338.569 172.901 339.412 172.901C340.265 172.901 340.989 172.664 341.586 172.19C342.182 171.707 342.632 171.03 342.935 170.159C343.248 169.288 343.404 168.265 343.404 167.091C343.404 165.917 343.248 164.899 342.935 164.037C342.632 163.175 342.182 162.508 341.586 162.034C340.998 161.561 340.274 161.324 339.412 161.324C338.56 161.324 337.836 161.556 337.239 162.02C336.642 162.484 336.183 163.147 335.861 164.009C335.549 164.87 335.392 165.898 335.392 167.091ZM373.521 178H362.768V148.909H373.507C376.471 148.909 379.023 149.491 381.163 150.656C383.313 151.812 384.97 153.478 386.135 155.656C387.299 157.825 387.882 160.42 387.882 163.44C387.882 166.471 387.299 169.075 386.135 171.253C384.979 173.431 383.327 175.102 381.177 176.267C379.028 177.422 376.475 178 373.521 178ZM369.799 172.006H373.251C374.88 172.006 376.258 171.731 377.385 171.182C378.521 170.623 379.378 169.719 379.956 168.469C380.543 167.209 380.836 165.533 380.836 163.44C380.836 161.348 380.543 159.681 379.956 158.44C379.368 157.19 378.502 156.291 377.356 155.741C376.22 155.183 374.818 154.903 373.152 154.903H369.799V172.006ZM391.987 178V156.182H398.734V160.159H398.961C399.359 158.72 400.008 157.65 400.907 156.949C401.807 156.239 402.853 155.884 404.047 155.884C404.368 155.884 404.7 155.907 405.041 155.955C405.382 155.992 405.699 156.054 405.993 156.139V162.176C405.661 162.062 405.225 161.973 404.686 161.906C404.155 161.84 403.682 161.807 403.265 161.807C402.441 161.807 401.698 161.991 401.035 162.361C400.382 162.721 399.866 163.227 399.487 163.881C399.118 164.525 398.933 165.282 398.933 166.153V178H391.987ZM417.889 178.412C415.607 178.412 413.637 177.962 411.98 177.062C410.332 176.153 409.063 174.861 408.173 173.185C407.292 171.499 406.852 169.496 406.852 167.176C406.852 164.922 407.297 162.953 408.187 161.267C409.077 159.572 410.332 158.256 411.951 157.318C413.571 156.371 415.479 155.898 417.676 155.898C419.229 155.898 420.649 156.139 421.937 156.622C423.225 157.105 424.338 157.82 425.275 158.767C426.213 159.714 426.942 160.884 427.463 162.276C427.984 163.658 428.244 165.244 428.244 167.034V168.767H409.281V164.733H421.781C421.771 163.994 421.596 163.336 421.255 162.759C420.914 162.181 420.446 161.731 419.849 161.409C419.262 161.078 418.585 160.912 417.818 160.912C417.041 160.912 416.345 161.087 415.73 161.438C415.114 161.778 414.627 162.247 414.267 162.844C413.907 163.431 413.717 164.098 413.699 164.847V168.952C413.699 169.842 413.874 170.623 414.224 171.295C414.574 171.958 415.072 172.474 415.716 172.844C416.359 173.213 417.127 173.398 418.017 173.398C418.632 173.398 419.191 173.312 419.693 173.142C420.195 172.972 420.626 172.721 420.985 172.389C421.345 172.058 421.615 171.651 421.795 171.168L428.173 171.352C427.908 172.782 427.325 174.027 426.426 175.088C425.536 176.139 424.366 176.958 422.917 177.545C421.468 178.123 419.792 178.412 417.889 178.412ZM437.942 178.369C436.55 178.369 435.314 178.137 434.235 177.673C433.165 177.2 432.317 176.49 431.692 175.543C431.077 174.586 430.769 173.388 430.769 171.949C430.769 170.737 430.982 169.714 431.408 168.881C431.834 168.047 432.421 167.37 433.169 166.849C433.917 166.329 434.779 165.936 435.755 165.67C436.73 165.396 437.772 165.211 438.88 165.116C440.12 165.003 441.119 164.884 441.877 164.761C442.634 164.629 443.184 164.444 443.525 164.207C443.875 163.961 444.05 163.616 444.05 163.17V163.099C444.05 162.37 443.799 161.807 443.297 161.409C442.795 161.011 442.118 160.812 441.266 160.812C440.347 160.812 439.609 161.011 439.05 161.409C438.491 161.807 438.136 162.356 437.985 163.057L431.578 162.83C431.768 161.504 432.256 160.32 433.042 159.278C433.837 158.227 434.926 157.403 436.309 156.807C437.701 156.201 439.372 155.898 441.323 155.898C442.715 155.898 443.998 156.063 445.172 156.395C446.346 156.717 447.369 157.19 448.24 157.815C449.112 158.431 449.784 159.188 450.257 160.088C450.74 160.988 450.982 162.015 450.982 163.17V178H444.448V174.96H444.277C443.889 175.699 443.392 176.324 442.786 176.835C442.189 177.347 441.484 177.73 440.669 177.986C439.864 178.241 438.955 178.369 437.942 178.369ZM440.087 173.824C440.835 173.824 441.507 173.672 442.104 173.369C442.71 173.066 443.193 172.65 443.553 172.119C443.913 171.58 444.093 170.955 444.093 170.244V168.17C443.894 168.275 443.652 168.369 443.368 168.455C443.094 168.54 442.791 168.62 442.459 168.696C442.128 168.772 441.787 168.838 441.436 168.895C441.086 168.952 440.75 169.004 440.428 169.051C439.775 169.155 439.216 169.316 438.752 169.534C438.297 169.752 437.947 170.036 437.701 170.386C437.464 170.727 437.346 171.134 437.346 171.608C437.346 172.328 437.601 172.877 438.113 173.256C438.633 173.634 439.292 173.824 440.087 173.824ZM455.229 178V156.182H461.834V160.188H462.076C462.53 158.862 463.297 157.815 464.377 157.048C465.456 156.281 466.744 155.898 468.24 155.898C469.756 155.898 471.053 156.286 472.132 157.062C473.212 157.839 473.899 158.881 474.192 160.188H474.419C474.827 158.89 475.622 157.853 476.806 157.077C477.989 156.291 479.386 155.898 480.996 155.898C483.06 155.898 484.737 156.561 486.025 157.886C487.312 159.203 487.956 161.011 487.956 163.312V178H481.01V164.903C481.01 163.814 480.731 162.986 480.172 162.418C479.614 161.84 478.889 161.551 477.999 161.551C477.042 161.551 476.29 161.864 475.74 162.489C475.201 163.104 474.931 163.933 474.931 164.974V178H468.255V164.832C468.255 163.819 467.98 163.019 467.431 162.432C466.882 161.845 466.157 161.551 465.257 161.551C464.651 161.551 464.116 161.698 463.652 161.991C463.188 162.276 462.824 162.683 462.559 163.213C462.303 163.743 462.175 164.368 462.175 165.088V178H455.229ZM511.309 162.844L504.931 163.014C504.864 162.56 504.685 162.157 504.391 161.807C504.097 161.447 503.714 161.168 503.24 160.969C502.776 160.76 502.237 160.656 501.621 160.656C500.816 160.656 500.13 160.817 499.561 161.139C499.003 161.461 498.728 161.897 498.738 162.446C498.728 162.872 498.899 163.241 499.249 163.554C499.609 163.866 500.248 164.117 501.167 164.307L505.371 165.102C507.549 165.519 509.168 166.21 510.229 167.176C511.299 168.142 511.839 169.42 511.848 171.011C511.839 172.508 511.394 173.81 510.513 174.918C509.642 176.026 508.449 176.887 506.934 177.503C505.418 178.109 503.685 178.412 501.735 178.412C498.619 178.412 496.162 177.773 494.363 176.494C492.573 175.206 491.55 173.483 491.294 171.324L498.155 171.153C498.307 171.949 498.7 172.555 499.334 172.972C499.969 173.388 500.778 173.597 501.763 173.597C502.653 173.597 503.378 173.431 503.936 173.099C504.495 172.768 504.779 172.328 504.789 171.778C504.779 171.286 504.561 170.893 504.135 170.599C503.709 170.296 503.042 170.06 502.132 169.889L498.326 169.165C496.138 168.767 494.509 168.033 493.439 166.963C492.369 165.884 491.839 164.51 491.848 162.844C491.839 161.385 492.227 160.14 493.013 159.108C493.799 158.066 494.917 157.271 496.365 156.722C497.814 156.172 499.524 155.898 501.493 155.898C504.448 155.898 506.777 156.518 508.482 157.759C510.186 158.99 511.129 160.685 511.309 162.844ZM523.862 178V156.182H530.808V178H523.862ZM527.342 153.639C526.367 153.639 525.529 153.317 524.828 152.673C524.127 152.02 523.777 151.234 523.777 150.315C523.777 149.406 524.127 148.63 524.828 147.986C525.529 147.332 526.367 147.006 527.342 147.006C528.327 147.006 529.165 147.332 529.856 147.986C530.557 148.63 530.907 149.406 530.907 150.315C530.907 151.234 530.557 152.02 529.856 152.673C529.165 153.317 528.327 153.639 527.342 153.639ZM542.175 165.557V178H535.229V156.182H541.834V160.188H542.076C542.559 158.852 543.382 157.806 544.547 157.048C545.712 156.281 547.099 155.898 548.709 155.898C550.243 155.898 551.574 156.243 552.701 156.935C553.837 157.616 554.718 158.573 555.343 159.804C555.977 161.026 556.29 162.455 556.28 164.094V178H549.334V165.457C549.344 164.245 549.036 163.298 548.411 162.616C547.795 161.935 546.938 161.594 545.84 161.594C545.111 161.594 544.467 161.755 543.908 162.077C543.359 162.389 542.933 162.839 542.63 163.426C542.336 164.013 542.185 164.723 542.175 165.557ZM572.896 156.182V161.295H559.132V156.182H572.896ZM562.015 150.955H568.961V171.139C568.961 171.565 569.028 171.911 569.16 172.176C569.302 172.432 569.506 172.616 569.771 172.73C570.036 172.834 570.353 172.886 570.723 172.886C570.988 172.886 571.267 172.863 571.561 172.815C571.864 172.759 572.091 172.711 572.243 172.673L573.294 177.688C572.962 177.782 572.493 177.901 571.887 178.043C571.291 178.185 570.576 178.275 569.743 178.312C568.114 178.388 566.717 178.199 565.552 177.744C564.397 177.28 563.511 176.561 562.896 175.585C562.29 174.61 561.996 173.384 562.015 171.906V150.955ZM586.39 178.412C584.099 178.412 582.129 177.943 580.481 177.006C578.843 176.059 577.579 174.742 576.689 173.057C575.808 171.362 575.368 169.397 575.368 167.162C575.368 164.918 575.808 162.953 576.689 161.267C577.579 159.572 578.843 158.256 580.481 157.318C582.129 156.371 584.099 155.898 586.39 155.898C588.682 155.898 590.647 156.371 592.285 157.318C593.933 158.256 595.197 159.572 596.078 161.267C596.968 162.953 597.413 164.918 597.413 167.162C597.413 169.397 596.968 171.362 596.078 173.057C595.197 174.742 593.933 176.059 592.285 177.006C590.647 177.943 588.682 178.412 586.39 178.412ZM586.433 173.17C587.266 173.17 587.972 172.915 588.549 172.403C589.127 171.892 589.567 171.182 589.87 170.273C590.183 169.364 590.339 168.312 590.339 167.119C590.339 165.907 590.183 164.847 589.87 163.938C589.567 163.028 589.127 162.318 588.549 161.807C587.972 161.295 587.266 161.04 586.433 161.04C585.571 161.04 584.842 161.295 584.245 161.807C583.658 162.318 583.208 163.028 582.896 163.938C582.593 164.847 582.441 165.907 582.441 167.119C582.441 168.312 582.593 169.364 582.896 170.273C583.208 171.182 583.658 171.892 584.245 172.403C584.842 172.915 585.571 173.17 586.433 173.17ZM187.418 207.631C187.324 206.589 186.902 205.779 186.154 205.202C185.415 204.615 184.36 204.321 182.987 204.321C182.077 204.321 181.32 204.439 180.714 204.676C180.108 204.913 179.653 205.24 179.35 205.656C179.047 206.063 178.891 206.532 178.881 207.062C178.862 207.498 178.948 207.882 179.137 208.213C179.336 208.545 179.62 208.838 179.989 209.094C180.368 209.34 180.823 209.558 181.353 209.747C181.883 209.937 182.48 210.102 183.143 210.244L185.643 210.812C187.082 211.125 188.351 211.542 189.45 212.062C190.558 212.583 191.486 213.204 192.234 213.923C192.991 214.643 193.564 215.472 193.952 216.409C194.341 217.347 194.54 218.398 194.549 219.562C194.54 221.4 194.076 222.976 193.157 224.293C192.238 225.609 190.917 226.617 189.194 227.318C187.48 228.019 185.411 228.369 182.987 228.369C180.553 228.369 178.432 228.005 176.623 227.276C174.814 226.546 173.408 225.438 172.404 223.952C171.4 222.465 170.884 220.585 170.856 218.312H177.589C177.646 219.25 177.897 220.031 178.342 220.656C178.787 221.281 179.397 221.755 180.174 222.077C180.96 222.399 181.869 222.56 182.901 222.56C183.848 222.56 184.653 222.432 185.316 222.176C185.988 221.92 186.504 221.565 186.864 221.111C187.224 220.656 187.409 220.135 187.418 219.548C187.409 218.999 187.238 218.53 186.907 218.142C186.576 217.744 186.064 217.403 185.373 217.119C184.691 216.826 183.82 216.556 182.759 216.31L179.719 215.599C177.201 215.022 175.217 214.089 173.768 212.801C172.319 211.504 171.599 209.752 171.609 207.545C171.599 205.746 172.082 204.17 173.058 202.815C174.033 201.461 175.382 200.405 177.106 199.648C178.829 198.89 180.794 198.511 183.001 198.511C185.254 198.511 187.21 198.895 188.867 199.662C190.534 200.42 191.826 201.485 192.745 202.858C193.664 204.231 194.132 205.822 194.151 207.631H187.418ZM208.285 228.412C205.984 228.412 204.009 227.938 202.362 226.991C200.723 226.045 199.464 224.728 198.583 223.043C197.702 221.348 197.262 219.387 197.262 217.162C197.262 214.927 197.702 212.967 198.583 211.281C199.473 209.586 200.737 208.265 202.376 207.318C204.023 206.371 205.988 205.898 208.271 205.898C210.288 205.898 212.044 206.262 213.54 206.991C215.046 207.721 216.22 208.753 217.063 210.088C217.915 211.414 218.365 212.972 218.413 214.761H211.921C211.789 213.644 211.41 212.768 210.785 212.134C210.169 211.499 209.364 211.182 208.37 211.182C207.565 211.182 206.86 211.409 206.254 211.864C205.647 212.309 205.174 212.972 204.833 213.852C204.502 214.723 204.336 215.803 204.336 217.091C204.336 218.379 204.502 219.468 204.833 220.358C205.174 221.239 205.647 221.906 206.254 222.361C206.86 222.806 207.565 223.028 208.37 223.028C209.014 223.028 209.582 222.891 210.075 222.616C210.576 222.342 210.988 221.939 211.31 221.409C211.632 220.869 211.836 220.216 211.921 219.449H218.413C218.346 221.248 217.897 222.82 217.063 224.165C216.239 225.509 215.079 226.556 213.583 227.304C212.096 228.043 210.33 228.412 208.285 228.412ZM228.118 228.369C226.726 228.369 225.49 228.137 224.411 227.673C223.34 227.2 222.493 226.49 221.868 225.543C221.252 224.586 220.945 223.388 220.945 221.949C220.945 220.737 221.158 219.714 221.584 218.881C222.01 218.047 222.597 217.37 223.345 216.849C224.093 216.329 224.955 215.936 225.93 215.67C226.906 215.396 227.947 215.211 229.055 215.116C230.296 215.003 231.295 214.884 232.053 214.761C232.81 214.629 233.359 214.444 233.7 214.207C234.051 213.961 234.226 213.616 234.226 213.17V213.099C234.226 212.37 233.975 211.807 233.473 211.409C232.971 211.011 232.294 210.812 231.442 210.812C230.523 210.812 229.785 211.011 229.226 211.409C228.667 211.807 228.312 212.356 228.161 213.057L221.754 212.83C221.944 211.504 222.431 210.32 223.217 209.278C224.013 208.227 225.102 207.403 226.484 206.807C227.876 206.201 229.548 205.898 231.499 205.898C232.891 205.898 234.174 206.063 235.348 206.395C236.522 206.717 237.545 207.19 238.416 207.815C239.287 208.431 239.96 209.188 240.433 210.088C240.916 210.988 241.158 212.015 241.158 213.17V228H234.624V224.96H234.453C234.065 225.699 233.568 226.324 232.962 226.835C232.365 227.347 231.66 227.73 230.845 227.986C230.04 228.241 229.131 228.369 228.118 228.369ZM230.263 223.824C231.011 223.824 231.683 223.672 232.28 223.369C232.886 223.066 233.369 222.65 233.729 222.119C234.089 221.58 234.268 220.955 234.268 220.244V218.17C234.07 218.275 233.828 218.369 233.544 218.455C233.269 218.54 232.966 218.62 232.635 218.696C232.304 218.772 231.963 218.838 231.612 218.895C231.262 218.952 230.926 219.004 230.604 219.051C229.95 219.155 229.392 219.316 228.928 219.534C228.473 219.752 228.123 220.036 227.876 220.386C227.64 220.727 227.521 221.134 227.521 221.608C227.521 222.328 227.777 222.877 228.288 223.256C228.809 223.634 229.467 223.824 230.263 223.824ZM252.351 198.909V228H245.405V198.909H252.351ZM262.923 228.369C261.531 228.369 260.295 228.137 259.215 227.673C258.145 227.2 257.298 226.49 256.673 225.543C256.057 224.586 255.749 223.388 255.749 221.949C255.749 220.737 255.962 219.714 256.388 218.881C256.815 218.047 257.402 217.37 258.15 216.849C258.898 216.329 259.76 215.936 260.735 215.67C261.71 215.396 262.752 215.211 263.86 215.116C265.101 215.003 266.1 214.884 266.857 214.761C267.615 214.629 268.164 214.444 268.505 214.207C268.855 213.961 269.031 213.616 269.031 213.17V213.099C269.031 212.37 268.78 211.807 268.278 211.409C267.776 211.011 267.099 210.812 266.246 210.812C265.328 210.812 264.589 211.011 264.031 211.409C263.472 211.807 263.117 212.356 262.965 213.057L256.559 212.83C256.748 211.504 257.236 210.32 258.022 209.278C258.817 208.227 259.906 207.403 261.289 206.807C262.681 206.201 264.353 205.898 266.303 205.898C267.695 205.898 268.978 206.063 270.153 206.395C271.327 206.717 272.35 207.19 273.221 207.815C274.092 208.431 274.764 209.188 275.238 210.088C275.721 210.988 275.962 212.015 275.962 213.17V228H269.428V224.96H269.258C268.87 225.699 268.372 226.324 267.766 226.835C267.17 227.347 266.464 227.73 265.65 227.986C264.845 228.241 263.936 228.369 262.923 228.369ZM265.067 223.824C265.816 223.824 266.488 223.672 267.085 223.369C267.691 223.066 268.174 222.65 268.533 222.119C268.893 221.58 269.073 220.955 269.073 220.244V218.17C268.874 218.275 268.633 218.369 268.349 218.455C268.074 218.54 267.771 218.62 267.44 218.696C267.108 218.772 266.767 218.838 266.417 218.895C266.067 218.952 265.73 219.004 265.408 219.051C264.755 219.155 264.196 219.316 263.732 219.534C263.278 219.752 262.927 220.036 262.681 220.386C262.444 220.727 262.326 221.134 262.326 221.608C262.326 222.328 262.582 222.877 263.093 223.256C263.614 223.634 264.272 223.824 265.067 223.824ZM280.21 228V198.909H287.156V209.918H287.298C287.582 209.255 287.984 208.616 288.505 208C289.035 207.384 289.708 206.883 290.522 206.494C291.346 206.097 292.331 205.898 293.477 205.898C294.992 205.898 296.407 206.295 297.724 207.091C299.049 207.886 300.12 209.113 300.934 210.77C301.748 212.427 302.156 214.539 302.156 217.105C302.156 219.577 301.763 221.646 300.977 223.312C300.2 224.979 299.149 226.229 297.823 227.062C296.507 227.896 295.044 228.312 293.434 228.312C292.335 228.312 291.384 228.133 290.579 227.773C289.774 227.413 289.097 226.939 288.548 226.352C288.008 225.765 287.591 225.135 287.298 224.463H287.085V228H280.21ZM287.013 217.091C287.013 218.265 287.17 219.288 287.482 220.159C287.804 221.03 288.263 221.707 288.86 222.19C289.466 222.664 290.191 222.901 291.033 222.901C291.886 222.901 292.61 222.664 293.207 222.19C293.803 221.707 294.253 221.03 294.556 220.159C294.869 219.288 295.025 218.265 295.025 217.091C295.025 215.917 294.869 214.899 294.556 214.037C294.253 213.175 293.803 212.508 293.207 212.034C292.62 211.561 291.895 211.324 291.033 211.324C290.181 211.324 289.457 211.556 288.86 212.02C288.263 212.484 287.804 213.147 287.482 214.009C287.17 214.87 287.013 215.898 287.013 217.091ZM312.741 198.909V228H305.795V198.909H312.741ZM327.362 228.412C325.079 228.412 323.11 227.962 321.452 227.062C319.805 226.153 318.536 224.861 317.646 223.185C316.765 221.499 316.325 219.496 316.325 217.176C316.325 214.922 316.77 212.953 317.66 211.267C318.55 209.572 319.805 208.256 321.424 207.318C323.043 206.371 324.951 205.898 327.148 205.898C328.701 205.898 330.122 206.139 331.41 206.622C332.698 207.105 333.81 207.82 334.748 208.767C335.685 209.714 336.415 210.884 336.935 212.276C337.456 213.658 337.717 215.244 337.717 217.034V218.767H318.754V214.733H331.254C331.244 213.994 331.069 213.336 330.728 212.759C330.387 212.181 329.918 211.731 329.322 211.409C328.735 211.078 328.058 210.912 327.29 210.912C326.514 210.912 325.818 211.087 325.202 211.438C324.587 211.778 324.099 212.247 323.739 212.844C323.379 213.431 323.19 214.098 323.171 214.847V218.952C323.171 219.842 323.346 220.623 323.697 221.295C324.047 221.958 324.544 222.474 325.188 222.844C325.832 223.213 326.599 223.398 327.489 223.398C328.105 223.398 328.664 223.312 329.165 223.142C329.667 222.972 330.098 222.721 330.458 222.389C330.818 222.058 331.088 221.651 331.268 221.168L337.646 221.352C337.38 222.782 336.798 224.027 335.898 225.088C335.008 226.139 333.839 226.958 332.39 227.545C330.941 228.123 329.265 228.412 327.362 228.412ZM349.858 228V198.909H361.875C364.053 198.909 365.933 199.302 367.514 200.088C369.105 200.865 370.331 201.982 371.193 203.44C372.055 204.889 372.486 206.608 372.486 208.597C372.486 210.614 372.045 212.328 371.165 213.739C370.284 215.14 369.034 216.21 367.415 216.949C365.795 217.678 363.878 218.043 361.662 218.043H354.062V212.503H360.355C361.416 212.503 362.301 212.366 363.011 212.091C363.731 211.807 364.276 211.381 364.645 210.812C365.014 210.235 365.199 209.496 365.199 208.597C365.199 207.697 365.014 206.954 364.645 206.366C364.276 205.77 363.731 205.325 363.011 205.031C362.292 204.728 361.406 204.577 360.355 204.577H356.889V228H349.858ZM366.236 214.705L373.48 228H365.81L358.707 214.705H366.236ZM386.112 228.412C383.829 228.412 381.86 227.962 380.202 227.062C378.555 226.153 377.286 224.861 376.396 223.185C375.515 221.499 375.075 219.496 375.075 217.176C375.075 214.922 375.52 212.953 376.41 211.267C377.3 209.572 378.555 208.256 380.174 207.318C381.793 206.371 383.701 205.898 385.898 205.898C387.451 205.898 388.872 206.139 390.16 206.622C391.448 207.105 392.56 207.82 393.498 208.767C394.435 209.714 395.165 210.884 395.685 212.276C396.206 213.658 396.467 215.244 396.467 217.034V218.767H377.504V214.733H390.004C389.994 213.994 389.819 213.336 389.478 212.759C389.137 212.181 388.668 211.731 388.072 211.409C387.485 211.078 386.808 210.912 386.04 210.912C385.264 210.912 384.568 211.087 383.952 211.438C383.337 211.778 382.849 212.247 382.489 212.844C382.129 213.431 381.94 214.098 381.921 214.847V218.952C381.921 219.842 382.096 220.623 382.447 221.295C382.797 221.958 383.294 222.474 383.938 222.844C384.582 223.213 385.349 223.398 386.239 223.398C386.855 223.398 387.414 223.312 387.915 223.142C388.417 222.972 388.848 222.721 389.208 222.389C389.568 222.058 389.838 221.651 390.018 221.168L396.396 221.352C396.13 222.782 395.548 224.027 394.648 225.088C393.758 226.139 392.589 226.958 391.14 227.545C389.691 228.123 388.015 228.412 386.112 228.412ZM406.165 228.369C404.773 228.369 403.537 228.137 402.457 227.673C401.387 227.2 400.54 226.49 399.915 225.543C399.299 224.586 398.991 223.388 398.991 221.949C398.991 220.737 399.205 219.714 399.631 218.881C400.057 218.047 400.644 217.37 401.392 216.849C402.14 216.329 403.002 215.936 403.977 215.67C404.953 215.396 405.994 215.211 407.102 215.116C408.343 215.003 409.342 214.884 410.099 214.761C410.857 214.629 411.406 214.444 411.747 214.207C412.098 213.961 412.273 213.616 412.273 213.17V213.099C412.273 212.37 412.022 211.807 411.52 211.409C411.018 211.011 410.341 210.812 409.489 210.812C408.57 210.812 407.831 211.011 407.273 211.409C406.714 211.807 406.359 212.356 406.207 213.057L399.801 212.83C399.991 211.504 400.478 210.32 401.264 209.278C402.06 208.227 403.149 207.403 404.531 206.807C405.923 206.201 407.595 205.898 409.545 205.898C410.938 205.898 412.221 206.063 413.395 206.395C414.569 206.717 415.592 207.19 416.463 207.815C417.334 208.431 418.007 209.188 418.48 210.088C418.963 210.988 419.205 212.015 419.205 213.17V228H412.67V224.96H412.5C412.112 225.699 411.615 226.324 411.009 226.835C410.412 227.347 409.706 227.73 408.892 227.986C408.087 228.241 407.178 228.369 406.165 228.369ZM408.31 223.824C409.058 223.824 409.73 223.672 410.327 223.369C410.933 223.066 411.416 222.65 411.776 222.119C412.135 221.58 412.315 220.955 412.315 220.244V218.17C412.116 218.275 411.875 218.369 411.591 218.455C411.316 218.54 411.013 218.62 410.682 218.696C410.35 218.772 410.009 218.838 409.659 218.895C409.309 218.952 408.973 219.004 408.651 219.051C407.997 219.155 407.438 219.316 406.974 219.534C406.52 219.752 406.17 220.036 405.923 220.386C405.687 220.727 405.568 221.134 405.568 221.608C405.568 222.328 405.824 222.877 406.335 223.256C406.856 223.634 407.514 223.824 408.31 223.824ZM430.398 198.909V228H423.452V198.909H430.398ZM434.819 228V206.182H441.765V228H434.819ZM438.299 203.639C437.324 203.639 436.486 203.317 435.785 202.673C435.084 202.02 434.734 201.234 434.734 200.315C434.734 199.406 435.084 198.63 435.785 197.986C436.486 197.332 437.324 197.006 438.299 197.006C439.284 197.006 440.122 197.332 440.813 197.986C441.514 198.63 441.864 199.406 441.864 200.315C441.864 201.234 441.514 202.02 440.813 202.673C440.122 203.317 439.284 203.639 438.299 203.639ZM458.501 206.182V211.295H444.737V206.182H458.501ZM447.621 200.955H454.567V221.139C454.567 221.565 454.633 221.911 454.766 222.176C454.908 222.432 455.111 222.616 455.376 222.73C455.642 222.834 455.959 222.886 456.328 222.886C456.593 222.886 456.873 222.863 457.166 222.815C457.469 222.759 457.696 222.711 457.848 222.673L458.899 227.688C458.568 227.782 458.099 227.901 457.493 228.043C456.896 228.185 456.181 228.275 455.348 228.312C453.719 228.388 452.322 228.199 451.158 227.744C450.002 227.28 449.117 226.561 448.501 225.585C447.895 224.61 447.602 223.384 447.621 221.906V200.955ZM462.045 228V206.182H468.991V228H462.045ZM465.526 203.639C464.55 203.639 463.712 203.317 463.011 202.673C462.311 202.02 461.96 201.234 461.96 200.315C461.96 199.406 462.311 198.63 463.011 197.986C463.712 197.332 464.55 197.006 465.526 197.006C466.51 197.006 467.348 197.332 468.04 197.986C468.741 198.63 469.091 199.406 469.091 200.315C469.091 201.234 468.741 202.02 468.04 202.673C467.348 203.317 466.51 203.639 465.526 203.639ZM483.612 228.412C481.329 228.412 479.36 227.962 477.702 227.062C476.055 226.153 474.786 224.861 473.896 223.185C473.015 221.499 472.575 219.496 472.575 217.176C472.575 214.922 473.02 212.953 473.91 211.267C474.8 209.572 476.055 208.256 477.674 207.318C479.293 206.371 481.201 205.898 483.398 205.898C484.951 205.898 486.372 206.139 487.66 206.622C488.948 207.105 490.06 207.82 490.998 208.767C491.935 209.714 492.665 210.884 493.185 212.276C493.706 213.658 493.967 215.244 493.967 217.034V218.767H475.004V214.733H487.504C487.494 213.994 487.319 213.336 486.978 212.759C486.637 212.181 486.168 211.731 485.572 211.409C484.985 211.078 484.308 210.912 483.54 210.912C482.764 210.912 482.068 211.087 481.452 211.438C480.837 211.778 480.349 212.247 479.989 212.844C479.629 213.431 479.44 214.098 479.421 214.847V218.952C479.421 219.842 479.596 220.623 479.947 221.295C480.297 221.958 480.794 222.474 481.438 222.844C482.082 223.213 482.849 223.398 483.739 223.398C484.355 223.398 484.914 223.312 485.415 223.142C485.917 222.972 486.348 222.721 486.708 222.389C487.068 222.058 487.338 221.651 487.518 221.168L493.896 221.352C493.63 222.782 493.048 224.027 492.148 225.088C491.258 226.139 490.089 226.958 488.64 227.545C487.191 228.123 485.515 228.412 483.612 228.412ZM516.562 212.844L510.185 213.014C510.118 212.56 509.938 212.157 509.645 211.807C509.351 211.447 508.968 211.168 508.494 210.969C508.03 210.76 507.491 210.656 506.875 210.656C506.07 210.656 505.384 210.817 504.815 211.139C504.257 211.461 503.982 211.897 503.991 212.446C503.982 212.872 504.152 213.241 504.503 213.554C504.863 213.866 505.502 214.117 506.42 214.307L510.625 215.102C512.803 215.519 514.422 216.21 515.483 217.176C516.553 218.142 517.093 219.42 517.102 221.011C517.093 222.508 516.648 223.81 515.767 224.918C514.896 226.026 513.703 226.887 512.188 227.503C510.672 228.109 508.939 228.412 506.989 228.412C503.873 228.412 501.416 227.773 499.616 226.494C497.827 225.206 496.804 223.483 496.548 221.324L503.409 221.153C503.561 221.949 503.954 222.555 504.588 222.972C505.223 223.388 506.032 223.597 507.017 223.597C507.907 223.597 508.632 223.431 509.19 223.099C509.749 222.768 510.033 222.328 510.043 221.778C510.033 221.286 509.815 220.893 509.389 220.599C508.963 220.296 508.295 220.06 507.386 219.889L503.58 219.165C501.392 218.767 499.763 218.033 498.693 216.963C497.623 215.884 497.093 214.51 497.102 212.844C497.093 211.385 497.481 210.14 498.267 209.108C499.053 208.066 500.17 207.271 501.619 206.722C503.068 206.172 504.777 205.898 506.747 205.898C509.702 205.898 512.031 206.518 513.736 207.759C515.44 208.99 516.383 210.685 516.562 212.844ZM524.428 228.412C523.406 228.412 522.53 228.052 521.8 227.332C521.081 226.613 520.726 225.741 520.735 224.719C520.726 223.715 521.081 222.858 521.8 222.148C522.53 221.428 523.406 221.068 524.428 221.068C525.394 221.068 526.246 221.428 526.985 222.148C527.733 222.858 528.112 223.715 528.121 224.719C528.112 225.401 527.932 226.021 527.582 226.58C527.241 227.138 526.791 227.583 526.232 227.915C525.683 228.246 525.082 228.412 524.428 228.412Z" fill="url(#paint1_linear_63_42)"/>
</g>
<defs>
<linearGradient id="paint0_linear_63_42" x1="0" y1="0" x2="700" y2="319" gradientUnits="userSpaceOnUse">
<stop stop-color="#FFA183"/>
<stop offset="1" stop-color="#3C4A91"/>
</linearGradient>
<linearGradient id="paint1_linear_63_42" x1="350" y1="138" x2="350" y2="238" gradientUnits="userSpaceOnUse">
<stop stop-color="#111111"/>
<stop offset="1" stop-color="#111111" stop-opacity="0.5"/>
</linearGradient>
<clipPath id="clip0_63_42">
<rect width="700" height="320" rx="12" fill="white"/>
</clipPath>
</defs>
</svg>
