<svg width="83" height="16" viewBox="0 0 83 16" fill="none" xmlns="http://www.w3.org/2000/svg">
<g clip-path="url(#clip0_31_11)">
<path opacity="0.05" fill-rule="evenodd" clip-rule="evenodd" d="M7.23517 14.2677C9.32165 10.6164 9.32165 5.38367 7.23517 1.73232L7.69823 1.46771C9.87841 5.28302 9.87841 10.717 7.69823 14.5323L7.23517 14.2677Z" fill="#161416"/>
<path opacity="0.1" fill-rule="evenodd" clip-rule="evenodd" d="M7.76752 14.376C9.85525 10.6616 9.85525 5.3384 7.76752 1.62398L8.23244 1.36267C10.4114 5.23936 10.4114 10.7606 8.23244 14.6373L7.76752 14.376Z" fill="#161416"/>
<path opacity="0.15" fill-rule="evenodd" clip-rule="evenodd" d="M8.34241 14.4068C10.3734 10.6616 10.3748 5.34839 8.34661 1.6009L8.81566 1.34705C10.9296 5.25298 10.9281 10.7573 8.81125 14.6611L8.34241 14.4068Z" fill="#161416"/>
<path opacity="0.2" fill-rule="evenodd" clip-rule="evenodd" d="M8.97369 14.3243C10.8749 10.5903 10.8754 5.41372 8.9753 1.67895L9.45065 1.4371C11.4282 5.32387 11.4275 10.6803 9.44897 14.5663L8.97369 14.3243Z" fill="#161416"/>
<path opacity="0.25" fill-rule="evenodd" clip-rule="evenodd" d="M9.62604 14.182C11.3671 10.4938 11.3692 5.5223 9.63205 1.83101L10.1146 1.60391C11.9195 5.43914 11.9174 10.5774 10.1083 14.4097L9.62604 14.182Z" fill="#161416"/>
<path opacity="0.3" fill-rule="evenodd" clip-rule="evenodd" d="M10.3126 13.9365C11.8503 10.3421 11.8514 5.66624 10.3156 2.07034L10.8061 1.86087C12.399 5.59062 12.398 10.4179 10.803 14.1463L10.3126 13.9365Z" fill="#161416"/>
<path opacity="0.35" fill-rule="evenodd" clip-rule="evenodd" d="M11.0197 13.5953C12.3254 10.1554 12.3268 5.8571 11.0237 2.41541L11.5225 2.22656C12.8717 5.79003 12.8703 10.2229 11.5184 13.7846L11.0197 13.5953Z" fill="#161416"/>
<path opacity="0.4" fill-rule="evenodd" clip-rule="evenodd" d="M11.7499 13.1185C12.7934 9.91728 12.7945 6.09383 11.753 2.89139L12.2602 2.72644C13.3365 6.03617 13.3355 9.97524 12.257 13.2837L11.7499 13.1185Z" fill="#161416"/>
<path opacity="0.45" fill-rule="evenodd" clip-rule="evenodd" d="M12.5028 12.4459C13.2537 9.61391 13.2546 6.39672 12.5053 3.56392L13.0209 3.42752C13.7939 6.34979 13.793 9.66111 13.0183 12.5825L12.5028 12.4459Z" fill="#161416"/>
<path opacity="0.5" fill-rule="evenodd" clip-rule="evenodd" d="M13.2727 11.4688C13.7092 9.21346 13.7091 6.78494 13.2724 4.5297L13.796 4.42831C14.2456 6.75051 14.2457 9.24783 13.7963 11.5701L13.2727 11.4688Z" fill="#161416"/>
<path fill-rule="evenodd" clip-rule="evenodd" d="M7.9999 0.935516C4.09837 0.935516 0.935547 4.09834 0.935547 7.99987C0.935547 9.75872 1.57834 11.3675 2.64181 12.6039L1.75623 13.4895C1.54796 13.6978 1.54796 14.0355 1.75623 14.2437C1.96451 14.4521 2.30221 14.4521 2.51049 14.2437L3.39609 13.3582C4.63255 14.4215 6.24117 15.0642 7.9999 15.0642C11.9014 15.0642 15.0642 11.9013 15.0642 7.99987C15.0642 6.24114 14.4215 4.63251 13.3582 3.39606L14.2438 2.51046C14.4521 2.30218 14.4521 1.96448 14.2438 1.7562C14.0355 1.54793 13.6978 1.54793 13.4896 1.7562L12.6039 2.64178C11.3675 1.57831 9.75875 0.935516 7.9999 0.935516ZM11.8851 3.3607C10.8339 2.47946 9.47887 1.94884 7.9999 1.94884C4.65802 1.94884 1.94889 4.65799 1.94889 7.99987C1.94889 9.47884 2.47949 10.8339 3.36074 11.885L11.8851 3.3607ZM4.115 12.6393C5.1661 13.5203 6.52104 14.0509 7.9999 14.0509C11.3418 14.0509 14.0509 11.3418 14.0509 7.99987C14.0509 6.52102 13.5204 5.16607 12.6393 4.11497L4.115 12.6393Z" fill="#161416"/>
</g>
<path d="M33.888 14.256C30.72 14.256 28.784 12 28.784 8.336C28.784 4.656 30.72 2.384 33.888 2.384C37.056 2.384 38.992 4.656 38.992 8.336C38.992 12 37.056 14.256 33.888 14.256ZM33.888 13.184C36.352 13.184 37.84 11.36 37.84 8.336C37.84 5.296 36.352 3.456 33.888 3.456C31.424 3.456 29.936 5.296 29.936 8.336C29.936 11.36 31.424 13.184 33.888 13.184ZM40.812 14V5.52H41.724L41.772 7.216C42.108 6.064 42.78 5.52 43.9 5.52H44.636V6.544H43.868C42.588 6.544 41.868 7.424 41.868 8.832V14H40.812ZM50.2431 14.192C48.9631 14.192 47.9551 13.488 47.4911 12.432L47.4431 14H46.5151V2.64H47.5711V7.008C47.9871 6.096 48.9791 5.328 50.2431 5.328C52.4671 5.328 53.8591 7.056 53.8591 9.76C53.8591 12.48 52.4671 14.192 50.2431 14.192ZM50.1951 13.184C51.7631 13.184 52.7391 11.856 52.7391 9.76C52.7391 7.648 51.7631 6.336 50.2111 6.336C48.5791 6.336 47.5711 7.68 47.5711 9.76C47.5711 11.824 48.5791 13.184 50.1951 13.184ZM55.6558 14V5.52H56.7118V14H55.6558ZM55.6238 4.112V2.688H56.7438V4.112H55.6238ZM61.6783 14C60.3023 14 59.6463 13.376 59.6463 12.016V6.464H58.3183V5.52H59.6463V3.536H60.7023V5.52H62.8943V6.464H60.7023V11.984C60.7023 12.784 61.0543 13.056 61.7743 13.056H62.8943V14H61.6783ZM64.988 14V2.64H66.076V8.72L71.644 2.64H73.02L68.508 7.568L73.34 14H72.028L67.788 8.368L66.076 10.224V14H64.988ZM75.0933 14V5.52H76.1493V14H75.0933ZM75.0613 4.112V2.688H76.1813V4.112H75.0613ZM81.1158 14C79.7398 14 79.0838 13.376 79.0838 12.016V6.464H77.7558V5.52H79.0838V3.536H80.1398V5.52H82.3318V6.464H80.1398V11.984C80.1398 12.784 80.4918 13.056 81.2118 13.056H82.3318V14H81.1158Z" fill="#161416"/>
<defs>
<clipPath id="clip0_31_11">
<rect width="16" height="16" fill="white"/>
</clipPath>
</defs>
</svg>
